<?xml version="1.0" encoding="UTF-8"?>
<svg xmlns="http://www.w3.org/2000/svg" xmlns:xlink="http://www.w3.org/1999/xlink" width="192px" height="192px" viewBox="0 0 192 192" version="1.1">
<g id="surface1">
<path style=" stroke:none;fill-rule:nonzero;fill:rgb(94.901961%,94.901961%,94.901961%);fill-opacity:1;" d="M 81.480469 184.570312 C 82.183594 184.628906 82.570312 183.53125 82.039062 182.890625 L 81.988281 182.625 C 81.992188 182.605469 82 182.582031 82.007812 182.5625 C 82.71875 180.433594 85.128906 180.445312 85.835938 182.582031 C 86.460938 184.472656 87.257812 186.371094 87.453125 188.371094 C 87.542969 189.257812 87.5 190.15625 87.34375 191.023438 C 88.8125 187 89.582031 182.605469 89.582031 178.1875 C 89.582031 177.078125 89.535156 175.964844 89.4375 174.859375 C 89.355469 173.953125 89.242188 173.050781 89.097656 172.160156 C 88.3125 167.339844 86.613281 162.746094 84.160156 158.910156 C 82.984375 158.097656 82 156.835938 81.40625 155.316406 C 81.195312 154.769531 81.027344 154.183594 80.945312 153.582031 C 81.082031 153.605469 81.453125 151.039062 81.351562 150.882812 C 81.539062 150.527344 81.875 150.347656 82.078125 150 C 83.09375 148.273438 84.492188 148.574219 85.222656 150.925781 C 86.78125 151.914062 86.796875 153.554688 85.839844 155.128906 C 85.230469 156.132812 85.148438 157.492188 84.613281 158.566406 C 84.667969 158.65625 84.722656 158.738281 84.78125 158.828125 C 85.789062 160.453125 86.660156 162.199219 87.394531 164.03125 C 87.1875 161.992188 87.492188 159.539062 88.015625 157.957031 C 88.609375 156.152344 89.726562 154.632812 90.710938 153.074219 C 91.890625 151.203125 94.308594 152.019531 94.515625 154.394531 C 94.519531 154.414062 94.519531 154.4375 94.523438 154.460938 C 94.375 154.566406 94.234375 154.675781 94.09375 154.792969 C 93.296875 155.453125 93.574219 157.003906 94.515625 157.1875 L 94.539062 157.191406 C 94.484375 157.851562 94.394531 158.503906 94.261719 159.148438 C 95.523438 165.269531 92.800781 167.5 88.917969 167.601562 C 88.832031 167.65625 88.75 167.710938 88.664062 167.761719 C 89.054688 169.15625 89.371094 170.582031 89.605469 172.03125 C 89.8125 173.308594 89.957031 174.601562 90.039062 175.898438 C 90.140625 177.539062 90.132812 179.183594 90.019531 180.820312 L 90.027344 180.761719 C 90.308594 178.960938 91.085938 177.277344 92.214844 176.113281 C 93.898438 174.375 96.277344 173.734375 98.09375 172.339844 C 98.96875 171.667969 100.089844 172.535156 99.9375 173.808594 L 99.929688 173.871094 C 99.660156 174.007812 99.394531 174.167969 99.140625 174.347656 C 98.992188 174.453125 98.851562 174.5625 98.710938 174.675781 C 97.914062 175.339844 98.191406 176.890625 99.132812 177.074219 L 99.15625 177.078125 C 99.171875 177.078125 99.183594 177.082031 99.199219 177.085938 C 98.734375 178.46875 98.089844 179.753906 97.28125 180.859375 C 96.492188 186.203125 93.105469 186.710938 89.488281 185.15625 L 89.484375 185.15625 C 89.089844 187.320312 88.511719 189.4375 87.769531 191.453125 L 81.632812 191.453125 C 81.609375 191.367188 81.589844 191.277344 81.570312 191.191406 C 82.140625 191.238281 82.710938 191.195312 83.269531 191.066406 C 82.8125 190.363281 82.359375 189.65625 81.902344 188.957031 C 81.894531 188.941406 81.882812 188.929688 81.875 188.914062 C 81.644531 188.554688 81.410156 188.199219 81.179688 187.839844 C 81.164062 186.738281 81.269531 185.636719 81.480469 184.574219 Z M 81.480469 184.570312 "/>
<path style=" stroke:none;fill-rule:nonzero;fill:rgb(80.000001%,80.000001%,80.000001%);fill-opacity:1;" d="M 0 191.605469 C 0 191.886719 0.179688 192.113281 0.40625 192.113281 L 137.695312 192.113281 C 137.921875 192.113281 138.101562 191.886719 138.101562 191.605469 C 138.101562 191.324219 137.921875 191.09375 137.695312 191.09375 L 0.40625 191.09375 C 0.179688 191.09375 0 191.324219 0 191.605469 Z M 0 191.605469 "/>
<path style=" stroke:none;fill-rule:nonzero;fill:rgb(90.196079%,90.196079%,90.196079%);fill-opacity:1;" d="M 185.445312 192 L 115.128906 192 C 111.425781 192 108.414062 188.214844 108.414062 183.566406 L 108.414062 8.433594 C 108.414062 3.785156 111.425781 0 115.128906 0 L 185.445312 0 C 189.148438 0 192.160156 3.785156 192.160156 8.433594 L 192.160156 183.566406 C 192.160156 188.214844 189.148438 192 185.445312 192 Z M 115.128906 0.855469 C 111.796875 0.855469 109.09375 4.25 109.09375 8.433594 L 109.09375 183.566406 C 109.09375 187.75 111.796875 191.144531 115.128906 191.144531 L 185.445312 191.144531 C 188.777344 191.144531 191.476562 187.75 191.476562 183.566406 L 191.476562 64.445312 C 191.476562 29.324219 168.8125 0.855469 140.855469 0.855469 Z M 115.128906 0.855469 "/>
<path style=" stroke:none;fill-rule:nonzero;fill:rgb(90.196079%,90.196079%,90.196079%);fill-opacity:1;" d="M 136.554688 76.167969 C 136.554688 70.5 132.898438 65.902344 128.386719 65.902344 C 123.875 65.902344 120.214844 70.5 120.214844 76.167969 C 120.214844 81.835938 123.875 86.429688 128.386719 86.429688 C 132.898438 86.429688 136.554688 81.835938 136.554688 76.167969 Z M 136.554688 76.167969 "/>
<path style=" stroke:none;fill-rule:nonzero;fill:rgb(90.196079%,90.196079%,90.196079%);fill-opacity:1;" d="M 180.359375 76.167969 C 180.359375 70.5 176.699219 65.902344 172.1875 65.902344 C 167.675781 65.902344 164.015625 70.5 164.015625 76.167969 C 164.015625 81.835938 167.675781 86.429688 172.1875 86.429688 C 176.699219 86.429688 180.359375 81.835938 180.359375 76.167969 Z M 180.359375 76.167969 "/>
<path style=" stroke:none;fill-rule:nonzero;fill:rgb(90.196079%,90.196079%,90.196079%);fill-opacity:1;" d="M 158.457031 76.167969 C 158.457031 70.5 154.800781 65.902344 150.285156 65.902344 C 145.773438 65.902344 142.117188 70.5 142.117188 76.167969 C 142.117188 81.835938 145.773438 86.429688 150.285156 86.429688 C 154.800781 86.429688 158.457031 81.835938 158.457031 76.167969 Z M 158.457031 76.167969 "/>
<path style=" stroke:none;fill-rule:nonzero;fill:rgb(90.196079%,90.196079%,90.196079%);fill-opacity:1;" d="M 136.554688 105.671875 C 136.554688 100.003906 132.898438 95.410156 128.386719 95.410156 C 123.875 95.410156 120.214844 100.003906 120.214844 105.671875 C 120.214844 111.339844 123.875 115.933594 128.386719 115.933594 C 132.898438 115.933594 136.554688 111.339844 136.554688 105.671875 Z M 136.554688 105.671875 "/>
<path style=" stroke:none;fill-rule:nonzero;fill:rgb(90.196079%,90.196079%,90.196079%);fill-opacity:1;" d="M 180.359375 105.671875 C 180.359375 100.003906 176.699219 95.410156 172.1875 95.410156 C 167.675781 95.410156 164.015625 100.003906 164.015625 105.671875 C 164.015625 111.339844 167.675781 115.933594 172.1875 115.933594 C 176.699219 115.933594 180.359375 111.339844 180.359375 105.671875 Z M 180.359375 105.671875 "/>
<path style=" stroke:none;fill-rule:nonzero;fill:rgb(90.196079%,90.196079%,90.196079%);fill-opacity:1;" d="M 158.457031 105.671875 C 158.457031 100.003906 154.800781 95.410156 150.285156 95.410156 C 145.773438 95.410156 142.117188 100.003906 142.117188 105.671875 C 142.117188 111.339844 145.773438 115.933594 150.285156 115.933594 C 154.800781 115.933594 158.457031 111.339844 158.457031 105.671875 Z M 158.457031 105.671875 "/>
<path style=" stroke:none;fill-rule:nonzero;fill:rgb(90.196079%,90.196079%,90.196079%);fill-opacity:1;" d="M 136.554688 135.175781 C 136.554688 129.507812 132.898438 124.914062 128.386719 124.914062 C 123.875 124.914062 120.214844 129.507812 120.214844 135.175781 C 120.214844 140.84375 123.875 145.441406 128.386719 145.441406 C 132.898438 145.441406 136.554688 140.84375 136.554688 135.175781 Z M 136.554688 135.175781 "/>
<path style=" stroke:none;fill-rule:nonzero;fill:rgb(90.196079%,90.196079%,90.196079%);fill-opacity:1;" d="M 180.191406 164.632812 C 180.191406 158.964844 176.53125 154.371094 172.019531 154.371094 C 167.507812 154.371094 163.851562 158.964844 163.851562 164.632812 C 163.851562 170.300781 167.507812 174.894531 172.019531 174.894531 C 176.53125 174.894531 180.191406 170.300781 180.191406 164.632812 Z M 180.191406 164.632812 "/>
<path style=" stroke:none;fill-rule:nonzero;fill:rgb(90.196079%,90.196079%,90.196079%);fill-opacity:1;" d="M 158.742188 164.632812 C 158.742188 158.964844 150.132812 154.371094 139.507812 154.371094 C 128.886719 154.371094 120.277344 158.964844 120.277344 164.632812 C 120.277344 170.300781 128.886719 174.894531 139.507812 174.894531 C 150.132812 174.894531 158.742188 170.300781 158.742188 164.632812 Z M 158.742188 164.632812 "/>
<path style=" stroke:none;fill-rule:nonzero;fill:rgb(90.196079%,90.196079%,90.196079%);fill-opacity:1;" d="M 180.359375 135.175781 C 180.359375 129.507812 176.699219 124.914062 172.1875 124.914062 C 167.675781 124.914062 164.015625 129.507812 164.015625 135.175781 C 164.015625 140.84375 167.675781 145.441406 172.1875 145.441406 C 176.699219 145.441406 180.359375 140.84375 180.359375 135.175781 Z M 180.359375 135.175781 "/>
<path style=" stroke:none;fill-rule:nonzero;fill:rgb(65.490198%,83.137256%,19.215687%);fill-opacity:1;" d="M 158.457031 135.175781 C 158.457031 129.507812 154.800781 124.914062 150.285156 124.914062 C 145.773438 124.914062 142.117188 129.507812 142.117188 135.175781 C 142.117188 140.84375 145.773438 145.441406 150.285156 145.441406 C 154.800781 145.441406 158.457031 140.84375 158.457031 135.175781 Z M 158.457031 135.175781 "/>
<path style=" stroke:none;fill-rule:nonzero;fill:rgb(100%,100%,100%);fill-opacity:1;" d="M 151.890625 11.972656 L 73.753906 11.972656 C 71.4375 11.972656 69.550781 14.339844 69.550781 17.25 L 69.550781 53.304688 C 69.550781 56.21875 71.4375 58.582031 73.753906 58.582031 L 151.890625 58.582031 C 154.210938 58.582031 156.09375 56.21875 156.09375 53.304688 L 156.09375 17.25 C 156.09375 14.339844 154.210938 11.972656 151.890625 11.972656 Z M 151.890625 11.972656 "/>
<path style=" stroke:none;fill-rule:nonzero;fill:rgb(24.705882%,23.921569%,33.725491%);fill-opacity:1;" d="M 151.890625 11.972656 L 73.753906 11.972656 C 71.4375 11.972656 69.550781 14.339844 69.550781 17.25 L 69.550781 53.304688 C 69.550781 56.21875 71.4375 58.582031 73.753906 58.582031 L 151.890625 58.582031 C 154.210938 58.582031 156.09375 56.21875 156.09375 53.304688 L 156.09375 17.25 C 156.09375 14.339844 154.210938 11.972656 151.890625 11.972656 Z M 155.652344 53.304688 C 155.652344 55.910156 153.964844 58.027344 151.890625 58.027344 L 73.753906 58.027344 C 71.679688 58.027344 69.992188 55.910156 69.992188 53.304688 L 69.992188 17.25 C 69.992188 14.644531 71.679688 12.527344 73.753906 12.527344 L 151.890625 12.527344 C 153.964844 12.527344 155.652344 14.644531 155.652344 17.25 Z M 155.652344 53.304688 "/>
<path style=" stroke:none;fill-rule:nonzero;fill:rgb(65.490198%,83.137256%,19.215687%);fill-opacity:1;" d="M 78.097656 33.78125 L 147.546875 33.78125 C 148.203125 33.78125 148.738281 34.453125 148.738281 35.277344 C 148.738281 36.105469 148.203125 36.773438 147.546875 36.773438 L 78.097656 36.773438 C 77.441406 36.773438 76.90625 36.105469 76.90625 35.277344 C 76.90625 34.453125 77.441406 33.78125 78.097656 33.78125 Z M 78.097656 33.78125 "/>
<path style=" stroke:none;fill-rule:nonzero;fill:rgb(62.7451%,38.039216%,41.568628%);fill-opacity:1;" d="M 23.132812 77.152344 L 22.4375 82.355469 L 28.609375 101.21875 L 31.921875 99.078125 L 28.695312 81.429688 L 28.234375 74.695312 Z M 23.132812 77.152344 "/>
<path style=" stroke:none;fill-rule:nonzero;fill:rgb(65.490198%,83.137256%,19.215687%);fill-opacity:1;" d="M 29.945312 47.863281 C 29.945312 47.863281 26.714844 45.894531 24.207031 52.539062 C 21.699219 59.183594 22.011719 73.757812 22.011719 73.757812 C 22.011719 73.757812 21.097656 74.847656 21.675781 75.613281 C 22.257812 76.378906 22.796875 77.589844 22.203125 78.988281 C 21.894531 79.726562 21.171875 81.167969 22.351562 81.578125 C 23.535156 81.988281 29.058594 80.054688 29.058594 80.054688 C 29.058594 80.054688 31.125 78.890625 29.949219 78.109375 C 28.777344 77.324219 30.429688 72.589844 30.429688 72.589844 L 31.796875 58.910156 Z M 29.945312 47.863281 "/>
<path style=" stroke:none;fill-rule:nonzero;fill:rgb(62.7451%,38.039216%,41.568628%);fill-opacity:1;" d="M 33.617188 102.546875 C 32.945312 99.804688 31.351562 97.984375 30.054688 98.484375 C 28.757812 98.984375 28.25 101.617188 28.921875 104.359375 C 29.589844 107.105469 31.1875 108.921875 32.484375 108.421875 C 33.78125 107.921875 34.289062 105.292969 33.617188 102.546875 Z M 33.617188 102.546875 "/>
<path style=" stroke:none;fill-rule:nonzero;fill:rgb(62.7451%,38.039216%,41.568628%);fill-opacity:1;" d="M 63.074219 189.25 L 66.167969 188.207031 L 64.4375 172.722656 L 59.871094 174.261719 Z M 63.074219 189.25 "/>
<path style=" stroke:none;fill-rule:nonzero;fill:rgb(18.431373%,18.039216%,25.490198%);fill-opacity:1;" d="M 73.652344 185.589844 C 73.792969 185.761719 73.984375 186.402344 74.035156 186.640625 C 74.191406 187.367188 73.847656 188.117188 73.265625 188.3125 L 63.6875 191.539062 C 63.289062 191.671875 62.882812 191.378906 62.777344 190.882812 L 62.671875 190.382812 C 62.671875 190.382812 61.875 189.035156 62.453125 186.851562 C 62.453125 186.851562 63.976562 187.894531 65.304688 185.007812 L 65.578125 183.613281 L 70.203125 185.863281 L 72.417969 185.46875 C 72.902344 185.386719 73.300781 185.160156 73.652344 185.589844 Z M 73.652344 185.589844 "/>
<path style=" stroke:none;fill-rule:nonzero;fill:rgb(62.7451%,38.039216%,41.568628%);fill-opacity:1;" d="M 32.753906 189.160156 L 35.957031 189.160156 L 37.480469 173.644531 L 32.753906 173.644531 Z M 32.753906 189.160156 "/>
<path style=" stroke:none;fill-rule:nonzero;fill:rgb(18.431373%,18.039216%,25.490198%);fill-opacity:1;" d="M 43.726562 189.070312 C 43.824219 189.28125 43.878906 189.960938 43.878906 190.207031 C 43.878906 190.960938 43.390625 191.574219 42.789062 191.574219 L 32.871094 191.574219 C 32.464844 191.574219 32.132812 191.15625 32.132812 190.640625 L 32.132812 190.121094 C 32.132812 190.121094 31.640625 188.5625 32.652344 186.640625 C 32.652344 186.640625 33.90625 188.144531 35.78125 185.789062 L 36.335938 184.53125 L 40.339844 188.210938 L 42.558594 188.554688 C 43.046875 188.628906 43.476562 188.542969 43.726562 189.070312 Z M 43.726562 189.070312 "/>
<path style=" stroke:none;fill-rule:nonzero;fill:rgb(18.431373%,18.039216%,25.490198%);fill-opacity:1;" d="M 54.066406 96.730469 L 62.488281 142.328125 L 66.554688 179.167969 L 60.164062 180.265625 L 42.453125 117.523438 L 38.386719 180.265625 L 31.125 180.992188 C 31.125 180.992188 25.316406 106.578125 27.929688 97.457031 Z M 54.066406 96.730469 "/>
<path style=" stroke:none;fill-rule:nonzero;fill:rgb(62.7451%,38.039216%,41.568628%);fill-opacity:1;" d="M 64.089844 42.8125 L 66.996094 38.996094 L 70.335938 19.042969 L 66.636719 18.472656 L 61.40625 35.34375 L 58.773438 41.238281 Z M 64.089844 42.8125 "/>
<path style=" stroke:none;fill-rule:nonzero;fill:rgb(65.490198%,83.137256%,19.215687%);fill-opacity:1;" d="M 45.347656 62.21875 C 45.347656 62.21875 48.066406 68.519531 53.113281 64.796875 C 58.164062 61.070312 63.5 46.410156 63.5 46.410156 C 63.5 46.410156 64.566406 42.683594 65.683594 41.945312 C 66.269531 41.554688 67.78125 41.136719 66.988281 39.960938 C 66.195312 38.789062 60.488281 36.226562 60.488281 36.226562 C 60.488281 36.226562 58.261719 35.726562 58.882812 37.203125 C 59.5 38.679688 57.464844 37.765625 57.667969 39.328125 C 57.875 40.890625 56.015625 41.429688 56.015625 41.429688 Z M 45.347656 62.21875 "/>
<path style=" stroke:none;fill-rule:nonzero;fill:rgb(62.7451%,38.039216%,41.568628%);fill-opacity:1;" d="M 70.355469 10.347656 C 69.058594 9.84375 67.460938 11.660156 66.789062 14.402344 C 66.113281 17.148438 66.621094 19.777344 67.917969 20.28125 C 69.214844 20.78125 70.808594 18.964844 71.484375 16.222656 C 72.15625 13.480469 71.652344 10.847656 70.355469 10.347656 Z M 70.355469 10.347656 "/>
<path style=" stroke:none;fill-rule:nonzero;fill:rgb(65.490198%,83.137256%,19.215687%);fill-opacity:1;" d="M 45.710938 40.398438 L 37.757812 40.398438 L 37.4375 43.546875 C 37.4375 43.546875 27.410156 47.011719 27.660156 48.902344 C 27.910156 50.789062 29.414062 82.28125 29.414062 82.28125 L 28.160156 98.023438 C 28.160156 98.023438 50.722656 109.992188 54.234375 95.820312 L 52.476562 79.445312 C 52.476562 79.445312 56.738281 51.421875 55.738281 50.160156 C 54.734375 48.902344 46.460938 43.863281 46.460938 43.863281 Z M 45.710938 40.398438 "/>
<path style=" stroke:none;fill-rule:nonzero;fill:rgb(62.7451%,38.039216%,41.568628%);fill-opacity:1;" d="M 48.226562 31.472656 C 48.226562 26.523438 45.03125 22.507812 41.089844 22.507812 C 37.148438 22.507812 33.953125 26.523438 33.953125 31.472656 C 33.953125 36.425781 37.148438 40.4375 41.089844 40.4375 C 45.03125 40.4375 48.226562 36.425781 48.226562 31.472656 Z M 48.226562 31.472656 "/>
<path style=" stroke:none;fill-rule:nonzero;fill:rgb(18.431373%,18.039216%,25.490198%);fill-opacity:1;" d="M 46.375 27.785156 C 47.289062 27.6875 48.199219 27.59375 49.113281 27.496094 C 48.796875 27.316406 48.472656 27.121094 48.261719 26.777344 C 48.054688 26.433594 48.011719 25.886719 48.261719 25.59375 C 48.558594 25.246094 49.046875 25.429688 49.367188 25.734375 C 49.191406 24.570312 48.636719 23.503906 47.863281 22.832031 C 46.914062 22.007812 44.570312 22.988281 43.429688 22.800781 C 42.109375 22.582031 41.945312 21.171875 40.628906 20.953125 C 40.132812 20.871094 39.574219 20.808594 39.183594 21.203125 C 38.75 21.640625 38.699219 22.464844 38.316406 22.972656 C 37.773438 23.695312 36.835938 23.480469 36.058594 23.6875 C 34.960938 23.972656 34.132812 25.1875 33.75 26.511719 C 33.367188 27.839844 33.351562 29.28125 33.339844 30.695312 C 33.332031 32.277344 33.328125 34.109375 34.238281 35.199219 C 34.792969 35.867188 36.304688 38.148438 36.46875 39.089844 C 36.582031 39.761719 41.3125 40.574219 42.335938 40.539062 L 45.832031 39.089844 C 46.175781 37.191406 45.605469 33.433594 44.789062 31.78125 C 45.058594 32.226562 46.300781 33.566406 46.492188 33.0625 C 46.683594 32.554688 46.597656 30.96875 46.832031 30.496094 C 47.132812 29.898438 45.816406 27.84375 46.375 27.785156 Z M 46.375 27.785156 "/>
</g>
</svg>
